<?xml version="1.0" encoding="UTF-8" standalone="no"?>
<svg
   id="Layer_1"
   data-name="Layer 1"
   viewBox="0 0 512 511.99999"
   version="1.1"
   width="512"
   height="512"
   xmlns="http://www.w3.org/2000/svg"
   xmlns:svg="http://www.w3.org/2000/svg"
   xmlns:rdf="http://www.w3.org/1999/02/22-rdf-syntax-ns#"
   xmlns:cc="http://creativecommons.org/ns#"
   xmlns:dc="http://purl.org/dc/elements/1.1/">
  <defs
     id="defs932">
    <style
       id="style930">.cls-1{fill:#fefefe;}.cls-2{fill:#3e4347;}.cls-3{fill:#699635;}.cls-4{fill:#f79d33;}.cls-5{fill:#fdce2e;}.cls-6{fill:#f9df85;}.cls-7{fill:#82bd4e;}.cls-8{fill:#75a843;}</style>
  </defs>
  <title
     id="title934">Dumpster fire emoji</title>
  <circle
     class="cls-2"
     cx="156.10074"
     cy="467.93314"
     id="circle938"
     r="18.425695"
     style="stroke-width:1.92335" />
  <circle
     class="cls-2"
     cx="454.64316"
     cy="410.84811"
     id="circle940"
     r="18.425695"
     style="stroke-width:1.92335" />
  <circle
     class="cls-2"
     cx="113.24848"
     cy="386.22925"
     id="circle942"
     r="14.521295"
     style="stroke-width:1.92335" />
  <polygon
     class="cls-2"
     points="418.72,123.54 273.45,120.26 307.6,187.41 439.33,183.97 "
     id="polygon944"
     transform="matrix(1.9233502,0,0,1.9233502,-499.70399,-150.94325)" />
  <polygon
     class="cls-2"
     points="414.09,128.42 268.82,125.14 302.97,192.29 434.7,188.86 "
     id="polygon946"
     transform="matrix(1.9233502,0,0,1.9233502,-499.70399,-150.94325)" />
  <polygon
     class="cls-3"
     points="501.17,266.36 505.79,218.82 511.94,218.82 506.96,265.89 "
     id="polygon948"
     transform="matrix(1.9233502,0,0,1.9233502,-499.70399,-150.94325)" />
  <polygon
     class="cls-3"
     points="439.33,183.97 507.89,196.18 332.25,203.81 307.6,187.41 "
     id="polygon950"
     transform="matrix(1.9233502,0,0,1.9233502,-499.70399,-150.94325)" />
  <path
     class="cls-4"
     d="m 452.93136,234.03453 c 1.44252,-35.58197 -5.77005,-81.43464 -27.08077,-140.058365 a 335.02837,335.02837 0 0 1 -68.81747,98.225505 229.99422,229.99422 0 0 1 -12.88644,-47.12208 c -134.38448,87.08929 -59.35459,185.16092 -1.71179,197.47036 73.99129,15.79071 135.05766,-117.93983 110.49647,-108.51542 z"
     id="path952"
     style="stroke-width:1.92335" />
  <path
     class="cls-5"
     d="m 428.33171,305.10232 c 9.42442,-12.75181 12.96338,-46.73741 -4.1352,-40.60192 0.75011,-23.75337 -4.61604,-54.45004 -19.86821,-93.78255 a 217.33857,217.33857 0 0 1 -47.41058,65.18233 151.23303,151.23303 0 0 1 -9.32825,-31.56217 c -24.58041,25.00355 -36.67829,46.46814 -40.92889,64.33606 a 160.23431,160.23431 0 0 1 -14.9252,-10.44379 c 6.30859,55.64252 39.89029,74.60675 56.00796,78.04955 28.79255,6.15472 91.14757,-30.69667 80.58837,-31.17751 z"
     id="path954"
     style="stroke-width:1.92335" />
  <path
     class="cls-6"
     d="m 328.12517,258.92269 c 0,0 8.38581,18.79113 18.27183,16.79084 0,0 22.86863,-23.0802 50.66104,-32.69695 0,0 -13.77119,39.69795 -9.50135,48.08375 5.67388,11.23237 30.889,-4.51987 30.889,-4.51987 -5.15457,24.09958 -38.02463,48.83386 -61.5472,43.79469 -23.52258,-5.03918 -51.08418,-38.15927 -28.77332,-71.45246 z"
     id="path956"
     style="stroke-width:1.92335" />
  <path
     class="cls-4"
     d="m 343.93511,142.04069 a 300.96584,300.96584 0 0 1 -35.23578,26.2922 C 302.66001,133.25098 285.98457,89.937125 252.92218,37.025762 A 334.91297,334.91297 0 0 1 206.16553,147.54148 230.59046,230.59046 0 0 1 183.72004,104.16992 c -113.227628,113.2084 -19.36814,193.45057 39.56331,193.45057 75.6646,0 142.23175,-36.29362 120.65176,-155.5798 z"
     id="path958"
     style="stroke-width:1.92335" />
  <path
     class="cls-5"
     d="m 299.48648,243.05505 c 6.5394,-14.42513 11.0785,-32.88929 12.13634,-56.4311 a 206.76015,206.76015 0 0 1 -24.67658,17.59866 c -4.21214,-23.40718 -15.88687,-52.27666 -39.02477,-87.57014 a 216.87697,216.87697 0 0 1 -32.69696,73.64508 150.75219,150.75219 0 0 1 -15.69454,-28.85025 c -18.81036,29.63882 -26.15756,53.12293 -26.5807,71.47169 a 159.63807,159.63807 0 0 1 -16.79084,-7.07793 c 17.79099,53.08447 54.58468,64.62457 71.06779,64.62457 29.44649,0 59.43152,-8.73201 89.16651,-50.83415 -0.0769,-0.13463 -6.59709,1.78872 -16.90625,3.42357 z"
     id="path960"
     style="stroke-width:1.92335" />
  <path
     class="cls-6"
     d="m 191.83657,218.84007 c 0,0 12.13634,16.59851 21.36842,12.59794 0,0 17.54096,-27.36927 42.71761,-42.56374 0,0 -5.17381,41.69823 0.76934,49.06466 7.88574,9.80909 29.25416,-10.86692 29.25416,-10.86692 0,24.63811 -26.9269,55.77715 -51.08418,55.77715 -24.15728,0 -57.91208,-26.8115 -43.02535,-64.00909 z"
     id="path962"
     style="stroke-width:1.92335" />
  <path
     class="cls-4"
     d="m 356.95619,107.09341 a 199.56682,199.56682 0 0 0 15.2714,-26.734568 c 15.25217,25.003558 6.25089,40.390358 -0.44237,45.314138 -9.00128,6.69326 -25.33052,-3.32739 -14.82903,-18.57957 z"
     id="path964"
     style="stroke-width:1.92335" />
  <path
     class="cls-4"
     d="m 146.83018,102.80434 c -8.90511,-15.386805 -9.90525,-34.389503 -9.90525,-34.389503 -21.73386,32.696963 -13.25189,50.622583 -6.00086,56.027203 9.69369,7.3472 26.1768,-3.94287 15.90611,-21.6377 z"
     id="path966"
     style="stroke-width:1.92335" />
  <path
     class="cls-4"
     d="m 197.39506,68.76104 a 50.007105,50.007105 0 0 0 -3.19277,-20.945283 c 20.61832,13.29035 20.36828,24.888151 17.67559,29.388791 -3.6159,6.058557 -15.77147,3.442797 -14.48282,-8.443508 z"
     id="path968"
     style="stroke-width:1.92335" />
  <path
     class="cls-5"
     d="m 428.00474,301.73646 c 9.42442,-12.73258 12.94415,-46.71818 -4.15443,-40.60192 0.76934,-23.75338 -4.61604,-54.43081 -19.86821,-93.76332 a 216.97314,216.97314 0 0 1 -47.41058,65.1631 151.7908,151.7908 0 0 1 -9.30902,-31.50448 c -24.58041,25.00356 -36.67828,46.46815 -40.92889,64.33607 a 159.44573,159.44573 0 0 1 -14.9252,-10.42456 c 6.28936,55.62329 39.87105,74.58752 55.98873,78.03032 28.81178,6.09702 91.0514,-30.73514 80.6076,-31.23521 z"
     id="path970"
     style="stroke-width:1.92335" />
  <polygon
     class="cls-7"
     points="507.89,196.18 499.42,287.26 339.96,316.26 332.25,203.81 "
     id="polygon972"
     transform="matrix(1.9233502,0,0,1.9233502,-499.70399,-150.94325)" />
  <polygon
     class="cls-8"
     points="332.25,203.81 339.96,316.26 315.69,270.56 307.6,187.41 "
     id="polygon974"
     transform="matrix(1.9233502,0,0,1.9233502,-499.70399,-150.94325)" />
  <polygon
     class="cls-3"
     points="334.01,229.46 505.79,218.82 504.96,227.73 334.77,240.53 "
     id="polygon976"
     transform="matrix(1.9233502,0,0,1.9233502,-499.70399,-150.94325)" />
  <polygon
     class="cls-3"
     points="337.14,278.83 507.64,257.65 506.96,265.89 337.81,288.64 "
     id="polygon978"
     transform="matrix(1.9233502,0,0,1.9233502,-499.70399,-150.94325)" />
  <polygon
     class="cls-7"
     points="326.24,229.68 334.01,229.46 310,212.06 302.51,212.06 "
     id="polygon980"
     transform="matrix(1.9233502,0,0,1.9233502,-499.70399,-150.94325)" />
  <polyline
     class="cls-8"
     points="307.6 253.68 330.21 289.68 337.81 288.64 334.01 229.46 326.24 229.68 302.51 212.06"
     id="polyline982"
     transform="matrix(1.9233502,0,0,1.9233502,-499.70399,-150.94325)" />
  <polyline
     class="cls-3"
     points="326.24 229.68 330.21 289.68 337.81 288.64 334.01 229.46"
     id="polyline984"
     transform="matrix(1.9233502,0,0,1.9233502,-499.70399,-150.94325)" />
  <polyline
     class="cls-7"
     points="307.6 187.41 301.01 187.41 301.01 193.89 327.68 213.13 332.89 213.13 332.25 203.81"
     id="polyline986"
     transform="matrix(1.9233502,0,0,1.9233502,-499.70399,-150.94325)" />
  <polyline
     class="cls-7"
     points="507.89 196.18 513.01 196.18 512.42 204.83 507.09 204.83"
     id="polyline988"
     transform="matrix(1.9233502,0,0,1.9233502,-499.70399,-150.94325)" />
  <polyline
     class="cls-2"
     points="273.45 120.26 268.82 125.14 275.93 139.13 286.24 135.35"
     id="polyline990"
     transform="matrix(1.9233502,0,0,1.9233502,-499.70399,-150.94325)" />
  <metadata
     id="metadata995">
    <rdf:RDF>
      <cc:Work
         rdf:about="">
        <dc:title>Dumpster fire emoji</dc:title>
      </cc:Work>
    </rdf:RDF>
  </metadata>
</svg>
